# xmcd
# Track frame offsets:
# 150
# 12951
# 23810
# 33065
# 46986
# 59882
# 72576
# 80345
# 93577
# 105331
# 114719
# 128677
# 140908
# 149712
#
# Disc length: 2130 seconds
# Revision: 0
# Processed by: cddbd v1.5.1PL2 Copyright (c) Steve Scherf et al.
# Submitted via: VisiTrax 2.9.10.228 - For more info visit www.synapsa.com
#
DISCID=cb08500e
DTITLE=Bruce Green - Instrumental Favourites
DYEAR=2001
DGENRE=Country
TTITLE0=Blue Eyes Crying in the Rain
TTITLE1=Tennessee Waltz
TTITLE2=Rose of San Antone
TTITLE3=Sleepwalk
TTITLE4=Lara's Theme
TTITLE5=Maggie
TTITLE6=The White Rabbit
TTITLE7=Pearly Shells
TTITLE8=I Love You Because
TTITLE9=Jambalaya
TTITLE10=She Thinks I Still Care
TTITLE11=Baby Blue
TTITLE12=Seven Lonely Days
TTITLE13=Blackboard of My Heart
EXTD=Independent Artist\nS.P.016
EXTT0=
EXTT1=
EXTT2=
EXTT3=
EXTT4=
EXTT5=
EXTT6=
EXTT7=
EXTT8=
EXTT9=
EXTT10=
EXTT11=
EXTT12=
EXTT13=
PLAYORDER=
